<svg width="51" height="51" viewBox="0 0 51 51" fill="none" xmlns="http://www.w3.org/2000/svg">
<path d="M31.1206 5.15948C30.005 4.83051 28.8586 4.61689 27.6994 4.52198C25.135 4.21862 22.536 4.42076 20.0494 5.11698L19.9006 5.15948C15.4419 6.3838 11.5089 9.03897 8.70653 12.7166C5.90411 16.3943 4.38748 20.8908 4.3899 25.5145C4.39231 30.1382 5.91364 34.6331 8.71989 38.3078C11.5261 41.9825 15.4619 44.6336 19.9219 45.8532C21.5541 46.3154 23.2405 46.5584 24.9369 46.5757C25.1261 46.6098 25.3184 46.6241 25.5106 46.6182C27.3998 46.6205 29.2803 46.3631 31.0994 45.8532C35.5555 44.6294 39.4867 41.9766 42.2894 38.3024C45.092 34.6282 46.6112 30.1356 46.6136 25.5145C46.616 20.8933 45.1016 16.3991 42.3027 12.722C39.5039 9.04484 35.5755 6.38802 31.1206 5.15948ZM30.5469 7.19948C33.2984 7.96068 35.843 9.33222 37.9915 11.2122C40.14 13.0921 41.8372 15.4321 42.9569 18.0582H33.9044C32.8224 13.8869 30.8345 10.0052 28.0819 6.68948C28.915 6.79833 29.7389 6.9688 30.5469 7.19948ZM25.5106 7.00823C28.4125 10.1538 30.5311 13.9397 31.6944 18.0582H19.2844C20.4416 13.9293 22.5774 10.1403 25.5106 7.01248V7.00823ZM32.2256 20.1832C32.9052 23.6994 32.9052 27.3133 32.2256 30.8295H18.7956C18.4362 29.0817 18.2581 27.3014 18.2644 25.517C18.2597 23.7256 18.4377 21.9385 18.7956 20.1832H32.2256ZM20.3256 7.24198L20.4744 7.19948C21.2844 6.9827 22.1079 6.81943 22.9394 6.71073C20.1695 10.0117 18.1729 13.8902 17.0956 18.0625H8.07498C9.19059 15.4658 10.8679 13.1486 12.9861 11.2776C15.1044 9.4066 17.611 8.02835 20.3256 7.24198ZM6.51311 25.517C6.51315 23.7102 6.77805 21.9132 7.29936 20.1832H16.6281C16.3052 21.9428 16.1416 23.728 16.1394 25.517C16.1428 27.2989 16.3064 29.0769 16.6281 30.8295H7.29936C6.77709 29.107 6.51215 27.3169 6.51311 25.517ZM20.4744 43.8132C17.7202 43.0577 15.1729 41.6883 13.0236 39.8076C10.8743 37.927 9.17879 35.584 8.06436 32.9545H17.0744C18.1619 37.1365 20.1733 41.0214 22.9606 44.3232C22.1203 44.2154 21.2892 44.0449 20.4744 43.8132ZM19.2844 32.9545H31.6944C30.5463 37.0856 28.426 40.8818 25.5106 44.0257C22.597 40.8737 20.4644 37.0815 19.2844 32.9545ZM30.5469 43.8132C29.7271 44.0244 28.8973 44.1946 28.0606 44.3232C30.8208 41.0095 32.8161 37.1277 33.9044 32.9545H42.9569C41.8398 35.5823 40.1435 37.9238 37.9945 39.8041C35.8456 41.6844 33.2997 43.0549 30.5469 43.8132ZM34.3719 30.8295C35.0311 27.3114 35.0311 23.7014 34.3719 20.1832H43.7006C44.2312 21.9111 44.4963 23.7095 44.4869 25.517C44.4916 27.3156 44.2339 29.1053 43.7219 30.8295H34.3719Z" fill="black"/>
</svg>
